<?xml version="1.0" encoding="UTF-8"?>
<svg id="layer" xmlns="http://www.w3.org/2000/svg" version="1.1" viewBox="0 0 600 207.6">
  <!-- Generator: Adobe Illustrator 29.1.0, SVG Export Plug-In . SVG Version: 2.1.0 Build 142)  -->
  <defs>
    <style>
      .st0 {
        fill: #d5072d;
      }
    </style>
  </defs>
  <path d="M269.7,54v13h6.2c5.6,0,5.9-1.2,5.9-4.4h1.9v11.4h-1.9c0-3.2-.3-4.3-5.9-4.3h-6.2v13.5h6c6.7,0,10-.5,10.5-5.4h1.9v8h-30.3v-2h1.5c4.1,0,4.4-1.3,4.4-4.6v-21.3c0-3-.2-4.6-4.4-4.6h-1.5v-2h30.3v8h-2c-.4-4.8-3.5-5.4-10.5-5.4h-5.9Z"/>
  <path d="M314.5,51.3l22.8,25.8h.2v-19.4c0-3.6-1.1-4.3-4.2-4.3h-1.5v-2h14.3v2h-1.7c-3,0-4,1-4,4.3v28.2h-3.1l-24.2-27.4h-.2v20.7c0,3.3.7,4.7,4,4.7h1.7v2h-14.3v-2h1.6c3.5,0,4-1.3,4-4.7v-24l-.8-.7c-1-.8-1.4-1.1-3.4-1.1h-1.5v-2h10.3Z"/>
  <path d="M389,61.8h-1.9c-.4-4.7-5-8.4-11.2-8.4-10,0-14,6.9-14,14.9s4.1,15.6,13.9,15.6,5.7-.9,7.2-1.6v-5.2c0-4.3.2-5.3-4-5.3h-1.7v-2h17v2h-1.2c-4,0-4,1.5-4,4.9v7.8c-4.1,1.1-7.8,2.1-13,2.1-16,0-20.7-10.6-20.7-17.9s5.3-17.9,20.2-17.9,9,1,13.4,2.2v8.8Z"/>
  <path d="M407.4,83.8h1.5c4.3,0,4.4-1.3,4.4-4.6v-21.3c0-3.3-.3-4.6-4.2-4.6h-1.7v-2h17.9v2h-1.6c-4,0-4.3,1.3-4.3,4.6v25.3h5.7c7.2,0,10.1-.8,10.5-5.4h1.9v8h-30.1v-2h0Z"/>
  <path d="M467.3,53.3h-1.6c-4.1,0-4.4,1.3-4.4,4.6v21.3c0,4.1,1,4.6,4.4,4.6h1.6v2h-17.9v-2h1.6c4.1,0,4.4-1.3,4.4-4.6v-21.3c0-3.9-.8-4.6-4.4-4.6h-1.6v-2h17.9v2Z"/>
  <path d="M482.7,75.7h1.9c.9,6.2,5.3,8.2,9.2,8.2s7.4-1.5,7.4-5.2-1.6-4.2-7.2-7.6c-8.8-5.3-11-7.5-11-11.7s4.6-8.6,11.7-8.6,7.3.9,10.9,1.9v8.8h-1.9c-.4-2.5-1.3-8-8.6-8s-6.4,1.4-6.4,4.3,1.9,3.8,6.5,6.7c9.3,5.9,11.7,8,11.7,12.6s-3.3,9.6-12.7,9.6-9.5-1.3-11.5-2v-9h0Z"/>
  <path d="M551.9,66.8v-8.9c0-3.5-.4-4.6-4.4-4.6h-1.6v-2h17.9v2h-1.6c-4.1,0-4.4,1.3-4.4,4.6v21.3c0,3.5.5,4.6,4.4,4.6h1.6v2h-17.9v-2h1.6c4,0,4.4-1.1,4.4-4.6v-9.7h-18.5v9.7c0,4.1,1,4.6,4.4,4.6h1.6v2h-17.9v-2h1.6c4.1,0,4.3-1.3,4.3-4.6v-21.3c0-3.9-.7-4.6-4.3-4.6h-1.6v-2h17.9v2h-1.6c-4.1,0-4.4,1.3-4.4,4.6v8.9h18.5Z"/>
  <path d="M288.3,135.9v-8.9c0-3.5-.4-4.6-4.4-4.6h-1.6v-2h17.9v2h-1.6c-4.1,0-4.4,1.3-4.4,4.6v21.3c0,3.5.5,4.6,4.4,4.6h1.6v2h-17.9v-2h1.6c4,0,4.4-1.1,4.4-4.6v-9.7h-18.5v9.7c0,4.1,1,4.6,4.4,4.6h1.6v2h-17.9v-2h1.6c4.1,0,4.3-1.3,4.3-4.6v-21.3c0-3.9-.7-4.6-4.3-4.6h-1.6v-2h17.9v2h-1.7c-4.1,0-4.4,1.3-4.4,4.6v8.9h18.6Z"/>
  <path d="M324.6,123.1v13h6.2c5.6,0,5.9-1.2,5.9-4.4h1.9v11.4h-1.9c0-3.1-.3-4.3-5.9-4.3h-6.2v13.7h6c6.7,0,10-.5,10.4-5.4h1.9v8h-30.3v-2h1.5c4.1,0,4.4-1.3,4.4-4.6v-21.3c0-3-.2-4.6-4.4-4.6h-1.5v-2h30.3v8h-1.9c-.4-4.8-3.5-5.4-10.4-5.4h-6Z"/>
  <path d="M366.8,136.8h4.7c6.5,0,9.6-2.3,9.6-6.9s-3.1-6.9-9.6-6.9h-4.7v13.8ZM366.8,148.7c0,3.8,1.5,4.3,4.4,4.3h1.6v2h-17.9v-2h1.6c3,0,4.4-.4,4.4-4.2v-21.7c0-3.1,0-4.6-4.4-4.6h-1.6v-2h16.4c6.5,0,16.3.1,16.3,9.4s-3.9,8.8-9.6,9.3v.2c.8.7,1.7,2.1,2.2,2.8l5.1,7c2.5,3.4,3.1,3.6,5.2,3.7v2h-2.5c-4.2,0-6.3-.8-8.8-4.4l-5.9-8.4c-1.9-2.6-2.8-2.8-4.2-2.8h-2.4v9.4h0Z"/>
  <path d="M421.8,122.5h-1.6c-4.1,0-4.4,1.3-4.4,4.6v21.3c0,4.1,1,4.6,4.4,4.6h1.6v2h-17.9v-2h1.6c4.1,0,4.4-1.3,4.4-4.6v-21.3c0-3.9-.8-4.6-4.4-4.6h-1.6v-2h17.9v2Z"/>
  <path d="M467.9,128.5h-1.9c-.4-4.1-2.3-5.4-9.7-5.4h-1.7v25.3c0,3.7.6,4.6,4.4,4.6h1.6v2h-17.9v-2h1.6c4.2,0,4.4-1.4,4.4-4.6v-25.3h-1.7c-7,0-9.3,1.3-9.7,5.4h-1.9v-8h32.7v8h-.2Z"/>
  <path d="M499.1,138.7l-5.3-13.5h-.6l-4.7,13.5h10.6ZM515.3,155h-16.5v-2h1.1c1.2,0,3.6-.2,3.6-2s-.6-2.6-.8-3l-2.6-6.6h-12.6l-2.1,6c-.9,2.5-1.1,3-1.1,3.8,0,1.4,1.8,1.8,3.5,1.8h1.2v2h-13.3v-2h.9c2.9,0,3.8-.7,5.7-6l9.5-26.6h5.6l11.5,27.2c1.8,4.2,2.8,5.3,5.4,5.3h.9v2.1h0Z"/>
  <path d="M557,130.9h-1.9c-.4-4.7-5-8.4-11.2-8.4-10,0-14,6.9-14,14.9s4,15.6,13.9,15.6,5.7-.9,7.2-1.6v-5.2c0-4.3.2-5.3-4-5.3h-1.7v-2h17v2h-1.1c-4,0-4,1.5-4,4.9v7.8c-4.1,1.1-7.8,2.1-13,2.1-16,0-20.7-10.6-20.7-17.9s5.3-17.9,20.2-17.9,9,1,13.4,2.2v8.8h-.1Z"/>
  <path d="M581.7,123.1v13h6.2c5.6,0,5.9-1.2,5.9-4.4h1.9v11.4h-1.9c0-3.1-.3-4.3-5.9-4.3h-6.2v13.7h6c6.7,0,10-.5,10.4-5.4h1.9v8h-30.3v-2h1.5c4.1,0,4.4-1.3,4.4-4.6v-21.3c0-3-.2-4.6-4.4-4.6h-1.5v-2h30.3v8h-1.9c-.4-4.8-3.5-5.4-10.4-5.4h-6Z"/>
  <path class="st0" d="M206.2,58.5v-29.9h-28.4V0h-29.7v27.2h-28.7V3h-32.6v24.2h-28.7V0h-29.7v28.6H0v29.9h27.1v28.9H3.1v32.8h24v28.9H0v29.9h28.4v28.6h29.7v-27.4h28.7v24.2h32.6v-24.2h28.7v27.3h29.7v-28.6h28.4v-29.9h-27.1v-28.9h24.1v-32.8h-24.1v-28.9h27.1ZM147.9,148.8H58.4V58.8h89.5v90Z"/>
</svg>