<?xml version="1.0" encoding="UTF-8"?>
<svg xmlns="http://www.w3.org/2000/svg" viewBox="0 0 100 118.21">
  <defs>
    <style>
      .cls-1 {
        fill: #ec297b;
      }

      .cls-2 {
        fill: #27b5d4;
      }

      .cls-3 {
        mix-blend-mode: multiply;
        opacity: .25;
      }

      .cls-4 {
        fill: #231f20;
      }

      .cls-5 {
        isolation: isolate;
      }

      .cls-6 {
        fill: #fff;
      }

      .cls-7 {
        fill: #ffdd15;
      }
    </style>
  </defs>
  <g class="cls-5">
    <g id="Layer_1" data-name="Layer 1">
      <g>
        <g class="cls-3">
          <path class="cls-4" d="M94.79,110.24c0,4.41-20.03,7.97-44.74,7.97s-44.73-3.57-44.73-7.97,20.03-7.97,44.73-7.97,44.74,3.57,44.74,7.97Z"/>
        </g>
        <g>
          <path class="cls-7" d="M76.1,104.22c0,5.64-4.3,7.41-9.59,7.41h-33.02c-5.3,0-9.59-1.77-9.59-7.41v-7.35c0-5.64,4.29-10.22,9.59-10.22h33.02c5.3,0,9.59,4.58,9.59,10.22v7.35Z"/>
          <path class="cls-4" d="M66.51,113.76h-33.02c-10.2,0-11.73-5.98-11.73-9.54v-7.35c0-6.81,5.26-12.35,11.73-12.35h33.02c6.47,0,11.72,5.54,11.72,12.35v7.35c0,3.56-1.52,9.54-11.72,9.54ZM33.49,88.78c-4.11,0-7.46,3.63-7.46,8.09v7.35c0,1.58,0,5.28,7.46,5.28h33.02c7.46,0,7.46-3.7,7.46-5.28v-7.35c0-4.46-3.35-8.09-7.46-8.09h-33.02Z"/>
        </g>
        <g>
          <path class="cls-7" d="M87.07,73.33c0,4.97-8.33,9.01-13.3,9.01H26.24c-4.97,0-13.3-4.03-13.3-9.01l4.3-33.83c0-4.97,4.03-9.01,9.01-9.01h47.53c4.97,0,9.01,4.03,9.01,9.01l4.3,33.83Z"/>
          <path class="cls-4" d="M73.76,84.47H26.24c-6.07,0-15.43-4.78-15.43-11.14l.02-.27,4.28-33.7c.08-6.08,5.04-11,11.14-11h47.53c6.09,0,11.06,4.92,11.14,11l4.3,33.97c0,6.36-9.36,11.14-15.44,11.14ZM15.07,73.44c.16,3.16,6.81,6.76,11.17,6.76h47.53c4.36,0,11.01-3.6,11.17-6.76l-4.29-33.94c0-3.79-3.08-6.87-6.87-6.87H26.24c-3.79,0-6.87,3.08-6.87,6.87l-.02.27-4.28,33.67Z"/>
        </g>
        <g class="cls-3">
          <path class="cls-4" d="M77.43,59.1c.99-1.31,1.74-2.75,2.13-4.21,1.83-6.79,2.8-13.77,2.94-20.75l-4.23-3.64s1.56-13.69-3.97-22.23C68.77-.28,33.61,3.71,27.18,6.03c-6.43,2.32-6.02,28.41-6.02,28.41l-4.08,3.56c.37,5.69,1.3,11.34,2.79,16.88.43,1.61,1.3,3.2,2.43,4.61-2.85,1.75-5.48,4.18-5.99,7.61-.48,3.25,1.04,6.44,4.52,9.48.5.44,1.05.81,1.63,1.11-.8,2.92-.7,6.11.5,9.13l1.86,4.7c2.2,5.53,7.46,9.11,13.41,9.11,1.82,0,3.61-.34,5.31-1.02,2.38-.94,4.41-2.46,5.95-4.4,1.54,1.93,3.58,3.46,5.95,4.4,1.7.67,3.49,1.02,5.31,1.02,5.95,0,11.22-3.58,13.42-9.11l1.86-4.7c1.13-2.84,1.28-5.84.63-8.61,1.06-.33,2.04-.88,2.9-1.63,3.48-3.04,5.01-6.23,4.52-9.48-.55-3.7-3.57-6.24-6.66-8Z"/>
        </g>
        <g>
          <g>
            <path class="cls-7" d="M2.2,76.89c-.76-7.47,4.85-14.16,12.54-14.94,7.69-.78,14.54,4.63,15.3,12.1l2.98,29.18c.43,4.17-2.71,7.91-7.01,8.35-4.3.44-8.12-2.59-8.55-6.76l-1.61-15.76c-7-.08-12.95-5.24-13.65-12.17Z"/>
            <path class="cls-4" d="M25.19,113.76c-5.11,0-9.34-3.75-9.85-8.72l-1.43-13.98c-7.29-.94-13.09-6.65-13.83-13.95-.88-8.62,5.6-16.38,14.45-17.28.56-.06,1.13-.09,1.69-.09,8.27,0,15.13,6.06,15.95,14.09l2.98,29.18c.54,5.33-3.45,10.13-8.91,10.69-.35.04-.7.05-1.04.05ZM16.22,64.01c-.42,0-.84.02-1.26.06-6.51.66-11.28,6.32-10.64,12.6.59,5.77,5.56,10.18,11.56,10.25l1.9.02,1.8,17.66c.31,2.98,3.05,5.17,6.21,4.86,3.12-.32,5.41-3.02,5.11-6.01l-2.98-29.18c-.6-5.85-5.63-10.26-11.71-10.26Z"/>
          </g>
          <g>
            <path class="cls-7" d="M97.75,77.33c.97-7.44-4.46-14.29-12.15-15.3-7.68-1.01-14.7,4.21-15.68,11.66l-3.8,29.09c-.54,4.16,2.5,7.99,6.79,8.55,4.29.56,8.22-2.35,8.76-6.51l2.06-15.71c7.01.12,13.12-4.86,14.02-11.77Z"/>
            <path class="cls-4" d="M73.97,113.53c-.44,0-.89-.03-1.34-.09-5.45-.71-9.32-5.62-8.63-10.94l3.8-29.09c1.02-7.77,7.85-13.64,15.89-13.64.72,0,1.45.05,2.17.14,4.27.56,8.07,2.7,10.71,6.02,2.66,3.34,3.82,7.49,3.27,11.66-.95,7.24-6.94,12.81-14.26,13.54l-1.82,13.94c-.63,4.81-4.85,8.44-9.81,8.44ZM83.71,64.04c-5.91,0-10.92,4.27-11.66,9.93l-3.8,29.08c-.39,2.99,1.83,5.75,4.95,6.16,3.15.41,5.98-1.74,6.37-4.68l2.3-17.6,2.11.03c5.91,0,10.93-4.26,11.66-9.91.4-3.02-.45-6.03-2.38-8.46-1.95-2.45-4.76-4.03-7.93-4.45-.54-.07-1.08-.11-1.62-.11Z"/>
          </g>
        </g>
        <g>
          <path class="cls-2" d="M41.46,62.88s-5.87-5.33-13.6-1.87c-7.73,3.47-9.78,7.11-4.22,11.95,5.55,4.84,17.82-10.09,17.82-10.09Z"/>
          <path class="cls-4" d="M26.31,76.07h0c-1.54,0-2.95-.52-4.07-1.49-2.94-2.57-4.19-5.04-3.82-7.56.45-3,3.17-5.53,8.56-7.95,2.01-.9,4.08-1.36,6.17-1.36,5.72,0,9.58,3.44,9.74,3.59l1.5,1.36-1.29,1.57c-.99,1.21-9.92,11.83-16.8,11.83ZM33.16,61.97c-1.48,0-2.96.33-4.42.98-5.03,2.25-5.97,3.9-6.09,4.69-.14.93.71,2.25,2.4,3.72.35.31.74.44,1.26.44,3.17,0,8.47-4.67,11.97-8.5-1.22-.65-3-1.33-5.12-1.33Z"/>
        </g>
        <g>
          <path class="cls-2" d="M58.95,62.88s5.87-5.33,13.6-1.87c7.73,3.46,9.78,7.11,4.22,11.95-5.56,4.84-17.82-10.09-17.82-10.09Z"/>
          <path class="cls-4" d="M74.1,76.07c-6.88,0-15.81-10.62-16.8-11.83l-1.29-1.57,1.5-1.36c.16-.15,4.02-3.59,9.74-3.59,2.08,0,4.16.46,6.16,1.36,5.4,2.42,8.12,4.94,8.56,7.95.38,2.52-.87,4.99-3.81,7.56-1.12.98-2.53,1.49-4.07,1.49ZM62.14,63.3c3.5,3.83,8.79,8.5,11.96,8.5.52,0,.91-.14,1.27-.44,1.68-1.47,2.54-2.79,2.4-3.72-.12-.78-1.06-2.43-6.09-4.69-1.46-.65-2.94-.98-4.42-.98-2.11,0-3.9.68-5.12,1.33Z"/>
        </g>
        <g>
          <path class="cls-2" d="M66.22,70.58c0,10.03-7.39,18.16-16.51,18.16s-16.5-8.13-16.5-18.16,7.39-18.17,16.5-18.17,16.51,8.13,16.51,18.17Z"/>
          <path class="cls-4" d="M49.71,90.87c-10.28,0-18.64-9.11-18.64-20.29s8.36-20.3,18.64-20.3,18.64,9.1,18.64,20.3-8.36,20.29-18.64,20.29ZM49.71,54.55c-7.93,0-14.37,7.19-14.37,16.03s6.45,16.03,14.37,16.03,14.37-7.19,14.37-16.03-6.45-16.03-14.37-16.03Z"/>
        </g>
        <g>
          <path class="cls-2" d="M75.44,53.38c-.69,2.57-3.46,5.43-6.02,6.19-14.24,3.07-25.17,3.07-39.4,0-2.56-.76-5.33-3.61-6.02-6.19-3.77-13.99-3.77-28.77,0-42.76.69-2.57,3.46-5.43,6.02-6.19,14.23-3.07,25.17-3.07,39.4,0,2.56.76,5.33,3.62,6.02,6.19,3.77,13.99,3.77,28.76,0,42.76Z"/>
          <path class="cls-4" d="M49.71,64c-6.31,0-12.71-.75-20.15-2.35l-.15-.04c-3.25-.96-6.6-4.4-7.48-7.68-3.87-14.34-3.87-29.51,0-43.86.87-3.27,4.23-6.72,7.47-7.68l.16-.04c7.43-1.6,13.84-2.35,20.15-2.35s12.72.75,20.15,2.35l.15.04c3.24.96,6.6,4.41,7.48,7.68,3.86,14.34,3.86,29.51,0,43.86-.88,3.27-4.23,6.72-7.48,7.68l-.15.04c-7.44,1.61-13.84,2.35-20.15,2.35ZM30.55,57.5c7.1,1.53,13.19,2.24,19.17,2.24s12.07-.71,19.17-2.24c1.83-.58,4-2.83,4.5-4.67,3.67-13.63,3.67-28.03,0-41.65-.49-1.85-2.66-4.1-4.5-4.68-7.09-1.53-13.19-2.24-19.17-2.24s-12.07.71-19.16,2.24c-1.84.58-4.01,2.83-4.5,4.67-3.68,13.63-3.68,28.03,0,41.65.49,1.85,2.66,4.1,4.5,4.68Z"/>
        </g>
        <g>
          <path class="cls-1" d="M38.6,59.84c7.98,1.4,14.44,1.81,22.22,0V4.04c-7.95-1.02-14.15-.88-22.22,0v55.8Z"/>
          <path class="cls-4" d="M50.47,62.11h0c-3.5,0-7.22-.38-12.05-1.22l-.88-.15V3.09l.95-.1c4.54-.5,8.13-.72,11.63-.72s6.98.23,10.83.72l.93.12v57.58l-.82.19c-3.57.83-7.04,1.23-10.59,1.23ZM39.67,58.94c4.28.72,7.64,1.04,10.8,1.04h0c3.12,0,6.16-.33,9.29-.99V4.99c-3.39-.4-6.48-.59-9.63-.59s-6.43.19-10.45.61v53.94Z"/>
        </g>
        <path class="cls-4" d="M49.72,57.51c-4.33,0-8.72-.51-13.81-1.61l-.13-.03c-2.34-.69-4.67-3.08-5.3-5.44-2.66-9.86-2.66-11.45,0-21.32.63-2.36,2.96-4.75,5.3-5.44l.13-.03c5.09-1.1,9.48-1.61,13.81-1.61s8.72.51,13.81,1.61l.12.03c2.34.69,4.67,3.08,5.3,5.44,2.66,9.86,2.66,11.46,0,21.32-.63,2.36-2.96,4.75-5.3,5.44l-.12.03c-5.09,1.1-9.48,1.61-13.81,1.61ZM36.71,52.51c4.82,1.04,8.95,1.52,13,1.52s8.19-.48,13-1.52c1.15-.37,2.56-1.83,2.87-2.98,2.5-9.3,2.5-10.21,0-19.51-.31-1.16-1.72-2.61-2.86-2.99-4.82-1.04-8.95-1.52-13-1.52s-8.19.48-13,1.52c-1.15.37-2.55,1.83-2.86,2.98-2.48,9.21-2.48,10.3,0,19.51.31,1.16,1.72,2.62,2.86,2.99Z"/>
        <path class="cls-6" d="M36.7,52.51c4.82,1.04,8.95,1.52,13,1.52s8.19-.48,13-1.52c1.15-.37,2.56-1.83,2.86-2.98,2.5-9.3,2.5-10.21,0-19.51-.31-1.16-1.72-2.61-2.86-2.99-4.81-1.04-8.95-1.52-13-1.52s-8.19.48-13,1.52c-1.15.37-2.56,1.83-2.86,2.98-2.48,9.21-2.48,10.3,0,19.51.31,1.16,1.72,2.62,2.87,2.99Z"/>
        <g class="cls-3">
          <path class="cls-4" d="M65.57,30.02c-.31-1.16-1.72-2.61-2.86-2.99-4.81-1.04-8.95-1.52-13-1.52s-8.19.48-13,1.52c-1.15.37-2.56,1.83-2.86,2.98-2.48,9.21-2.48,10.3,0,19.51.31,1.16,1.72,2.62,2.87,2.99,4.82,1.04,8.95,1.52,13,1.52s8.19-.48,13-1.52c1.15-.37,2.56-1.83,2.86-2.98,2.5-9.3,2.5-10.21,0-19.51ZM63.1,49.45c-.26.97-1.45,2.2-2.42,2.52-4.06.87-7.55,1.28-10.97,1.28s-6.91-.41-10.98-1.28c-.97-.31-2.16-1.54-2.42-2.52-2.09-7.77-2.09-8.69,0-16.47.26-.97,1.45-2.2,2.42-2.52,4.06-.87,7.55-1.28,10.98-1.28s6.91.41,10.98,1.28c.97.31,2.15,1.54,2.42,2.52,2.11,7.85,2.11,8.62,0,16.47Z"/>
        </g>
        <rect class="cls-4" x="48.65" y="1.51" width="2.13" height="23.1"/>
        <rect class="cls-4" x="48.65" y="55.18" width="2.13" height="8.18"/>
        <g>
          <g>
            <path class="cls-4" d="M62.67,38.68c-3.73,0-6.76,3.09-6.76,6.9h13.52c0-3.81-3.02-6.9-6.76-6.9ZM36.88,38.77c-3.8,0-6.89,3.06-6.89,6.81h2.09c0-2.82,2.15-5.11,4.8-5.11s4.8,2.29,4.8,5.11h2.09c0-3.76-3.09-6.81-6.89-6.81Z"/>
            <rect class="cls-4" x="54.68" y="33.02" width="13.89" height="2.85" transform="translate(-8.7 28.23) rotate(-24.15)"/>
          </g>
          <path class="cls-6" d="M66.16,41.75c0,.82-.67,1.49-1.49,1.49s-1.49-.67-1.49-1.49.67-1.49,1.49-1.49,1.49.67,1.49,1.49Z"/>
        </g>
        <g>
          <g>
            <path class="cls-1" d="M70.22,89.55c-2.07,5.22-7.98,7.77-13.19,5.7h0c-5.22-2.07-7.77-7.98-5.7-13.19l1.86-4.7c2.07-5.22,7.97-7.77,13.19-5.7h0c5.21,2.07,7.77,7.97,5.7,13.19l-1.86,4.7Z"/>
            <path class="cls-4" d="M60.77,98.1c-1.55,0-3.08-.29-4.53-.87-3.05-1.21-5.45-3.53-6.75-6.55-1.3-3.01-1.35-6.36-.14-9.41l1.86-4.7c1.87-4.72,6.36-7.76,11.43-7.76,1.55,0,3.08.29,4.53.87,6.3,2.5,9.39,9.66,6.9,15.96l-1.86,4.7c-1.87,4.72-6.36,7.77-11.43,7.77ZM62.64,73.07c-3.31,0-6.24,1.99-7.47,5.07l-1.86,4.7c-.79,1.99-.76,4.18.09,6.14.85,1.97,2.42,3.49,4.41,4.28.95.38,1.95.57,2.96.57,3.32,0,6.25-1.99,7.47-5.07l1.86-4.7c1.63-4.11-.39-8.79-4.51-10.42-.95-.38-1.95-.57-2.96-.57Z"/>
          </g>
          <g>
            <path class="cls-1" d="M28.79,89.55c2.07,5.22,7.98,7.77,13.19,5.7h0c5.22-2.07,7.77-7.98,5.7-13.19l-1.86-4.7c-2.07-5.22-7.97-7.77-13.19-5.7h0c-5.22,2.07-7.77,7.97-5.7,13.19l1.86,4.7Z"/>
            <path class="cls-4" d="M38.24,98.1h0c-5.07,0-9.56-3.05-11.43-7.77l-1.86-4.7c-2.5-6.3.6-13.46,6.9-15.96,1.45-.58,2.98-.87,4.53-.87,5.07,0,9.56,3.05,11.43,7.76l1.86,4.7c1.21,3.05,1.16,6.39-.14,9.41-1.3,3.02-3.7,5.34-6.76,6.55-1.45.58-2.97.87-4.53.87ZM36.37,73.07c-1.01,0-2.01.19-2.96.57-4.11,1.63-6.14,6.31-4.5,10.42l1.86,4.7c1.22,3.08,4.15,5.07,7.47,5.07h0c1.01,0,2-.19,2.96-.57,1.99-.79,3.56-2.31,4.41-4.28.85-1.97.88-4.15.09-6.15l-1.86-4.7c-1.22-3.08-4.15-5.07-7.47-5.07Z"/>
          </g>
        </g>
        <polygon class="cls-4" points="16.23 70.94 17.21 73.95 20.38 73.95 17.81 75.81 18.79 78.83 16.23 76.97 13.67 78.83 14.64 75.81 12.08 73.95 15.25 73.95 16.23 70.94"/>
        <polygon class="cls-4" points="84.98 70.94 85.96 73.95 89.13 73.95 86.57 75.81 87.54 78.83 84.98 76.97 82.42 78.83 83.4 75.81 80.83 73.95 84 73.95 84.98 70.94"/>
      </g>
    </g>
  </g>
</svg>